<svg enable-background="new 0 0 100 100" viewBox="0 0 100 100" xmlns="http://www.w3.org/2000/svg"><path d="m5273.1 2400.1v-2c0-2.8-5-4-9.7-4s-9.7 1.3-9.7 4v2c0 1.8.7 3.6 2 4.9l5 4.9c.3.3.4.6.4 1v6.4c0 .4.2.7.6.8l2.9.9c.5.1 1-.2 1-.8v-7.2c0-.4.2-.7.4-1l5.1-5c1.3-1.3 2-3.1 2-4.9zm-9.7-.1c-4.8 0-7.4-1.3-7.5-1.8.1-.5 2.7-1.8 7.5-1.8s7.3 1.3 7.5 1.8c-.2.5-2.7 1.8-7.5 1.8z"/><path d="m5268.4 2410.3c-.6 0-1 .4-1 1s.4 1 1 1h4.3c.6 0 1-.4 1-1s-.4-1-1-1z"/><path d="m5272.7 2413.7h-4.3c-.6 0-1 .4-1 1s.4 1 1 1h4.3c.6 0 1-.4 1-1s-.4-1-1-1z"/><path d="m5272.7 2417h-4.3c-.6 0-1 .4-1 1s.4 1 1 1h4.3c.6 0 1-.4 1-1 0-.5-.4-1-1-1z"/><path d="m50 2.5c-17.8 0-32.2 14.4-32.2 32.2 0 20.1 19.1 48.5 27.8 60.6 2.2 3 6.5 3 8.7 0 8.8-12.1 27.9-40.5 27.9-60.6 0-17.8-14.4-32.2-32.2-32.2zm.2 47.6c-8.6 0-15.6-7-15.6-15.6s7-15.6 15.6-15.6 15.6 7 15.6 15.6c0 8.7-7 15.6-15.6 15.6z"/></svg>